# xmcd
#
# Track frame offsets:
#	150
#	12450
#	25530
#	40312
#	55375
#	69932
#	83412
#	97480
#	111405
#	125417
#	138540
#	152005
#	165050
#	179085
#	193342
#	209592
#	232812
#	246852
#
# Disc length: 3489
#
# Revision: 2
# Processed by: cddbd v1.5.1PL0 Copyright (c) Steve Scherf et al.
# Submitted via: ExactAudioCopy v0.90b4
# Normalized: r0:DSETVAR1,TDELIM( - ),TSWAP
#
DISCID=f90d9f12
DTITLE=Various Artist - Down at the Crossroads
DYEAR=2001
DGENRE=Blues
TTITLE0=Robert Johnson - 01 Cross Road Blues
TTITLE1=Blind Lemon Jefferson - 02 See that ny Grave is Kept Clean
TTITLE2=Lonnie Johnson - 03 Guitar Blues
TTITLE3=Bessie Smith - 04 Black Mountain Blues
TTITLE4=Barbeque Bob - 05 Going up the country
TTITLE5=Arthur 'Big Boy' Crudup - 06 Rock Me Mama
TTITLE6=Blind Boy Fuller - 07 Rag Mama Rag
TTITLE7=Blind Willie Mctell - 08 Georgina Rag
TTITLE8=Blind Willie Johnson - 09 I know his Blood can Make me Whole
TTITLE9=Blind Lemon Jefferson - 10 Matchbox Blues
TTITLE10=Leroy Carr - 11 Sloppy Drunk Blues
TTITLE11=Robert Johnson - 12 Preaching Blues
TTITLE12=Blind Boy Fuller - 13 Ain't it a crying shame
TTITLE13=Bo Carter - 14 Banana In Your Fruit Basket
TTITLE14=Leroy Carr - 15 Hurry Down Sunshine
TTITLE15=Muddy Waters - 16 Mannish Boy
TTITLE16=Big Bill Broonzy - 17 Worrying You Off MY Mind
TTITLE17=Tampa Red - 18 Western Bound Blues
EXTD=
EXTT0=
EXTT1=
EXTT2=
EXTT3=
EXTT4=
EXTT5=
EXTT6=
EXTT7=
EXTT8=
EXTT9=
EXTT10=
EXTT11=
EXTT12=
EXTT13=
EXTT14=
EXTT15=
EXTT16=
EXTT17=
PLAYORDER=
